<?xml version="1.0" encoding="UTF-8"?>
<svg xmlns="http://www.w3.org/2000/svg" viewBox="0 0 1500 300">
  <defs>
    <style>
      .st0 { fill: #282828; }
      .st1 { fill: #a50000; }
    </style>
  </defs>

  <!-- BA Monogram - scaled and positioned left -->
  <g transform="translate(-213, -340) scale(0.95)">
    <g>
      <path class="st0" d="M847,619.2h-65.6l-35.7-60.3h-102.9l24.9-42.4h52.8l-46.7-78.6-107,181.4h-62.1l144.9-241c6.3-10.5,14.4-17.5,26.3-17.5s20,7,26.3,17.5l144.9,241Z"/>
      <path class="st0" d="M477.2,483.6c14.4-6.7,29.4-21.8,29.4-52.6,0-44.2-34.4-66.6-85.9-66.6h-187.7v255h194.3c50.2,0,84.2-30.5,84.2-81s-15.1-46.7-34.4-54.7ZM417.6,564.9h-129.8v-146.2h125.6c23.5,0,37.6,6,37.6,24.9s-9.2,24.5-29.2,24.5h-99v43.1h102.9c19.6,0,30.1,9.9,30.1,26.7s-15.1,27-38.2,27Z"/>
    </g>
    <rect class="st1" x="299.2" y="468.1" width="23.6" height="43.1"/>
    <polygon class="st1" points="642.7 558.9 615.2 558.9 640.3 516.4 667.6 516.4 642.7 558.9"/>
  </g>

  <!-- BOJIN ATTORNEYS text - scaled and positioned right, vertically centered -->
  <g transform="translate(492, -560) scale(1.1)">
    <path class="st0" d="M158.5,718.7v-48h35.3c9.7,0,16.2,4.2,16.2,12.6s-2.8,8.7-5.5,9.9c3.6,1.5,6.5,5.3,6.5,10.3,0,9.5-6.4,15.3-15.9,15.3h-36.6ZM174.7,698.3v-8.1h19.3c3.8,0,5.5-1.5,5.5-4.6s-2.6-4.7-7.1-4.7h-23.6v27.5h24.4c4.4,0,7.2-1.6,7.2-5.1s-2-5-5.7-5h-20Z"/>
    <path class="st0" d="M239.9,718.7c-13.7,0-23.7-10.6-23.7-24.5s10-23.5,23.7-23.5h11.9c14.1,0,23.9,9.6,23.9,23.5s-10,24.5-23.9,24.5h-11.9ZM251.8,708.4c8,0,13.6-5.7,13.6-13.7s-5.6-13.7-13.6-13.7h-11.9c-7.7,0-13.4,5.7-13.4,13.7s5.6,13.7,13.4,13.7h11.9Z"/>
    <path class="st0" d="M279.3,718.7v-10.3h17.8c10.3,0,14.3-3.5,14.3-11.6v-26.2h10.3v26.2c0,14.9-7.6,21.9-24.6,21.9h-17.8Z"/>
    <path class="st0" d="M329.2,718.7v-48h10.3v48h-10.3Z"/>
    <path class="st0" d="M357.2,686.7v32h-9.8v-42.5c0-3.8,2-6.1,5.2-6.1s2.7.5,4.2,1.9l31.4,30.2v-32h9.8v43c0,3.8-2.1,6.1-5.2,6.1s-2.8-.6-4.2-2l-31.4-30.6Z"/>
    <path class="st0" d="M474.1,718.7l-6.7-11.4h-20.3l4.7-8h10.8l-8.8-14.8-20.1,34.2h-11.7l27.3-45.4c1.2-2,2.7-3.3,5-3.3s3.8,1.3,5,3.3l27.3,45.4h-12.4Z"/>
    <path class="st0" d="M497.1,718.7v-37.7h-17.6v-10.3h45.6v10.3h-17.6v37.7h-10.3Z"/>
    <path class="st0" d="M546.8,718.7v-37.7h-17.6v-10.3h45.6v10.3h-17.6v37.7h-10.3Z"/>
    <path class="st0" d="M600.8,718.7c-13.7,0-23.7-10.6-23.7-24.5s10-23.5,23.7-23.5h11.9c14.1,0,23.9,9.6,23.9,23.5s-10,24.5-23.9,24.5h-11.9ZM612.7,708.4c8,0,13.6-5.7,13.6-13.7s-5.6-13.7-13.6-13.7h-11.9c-7.7,0-13.4,5.7-13.4,13.7s5.6,13.7,13.4,13.7h11.9Z"/>
    <path class="st0" d="M685.6,718.7l-11.7-13.1h-14.9v-8.8h18.6c5,0,7.8-3,7.8-8.1s-2.9-7.8-7.8-7.8h-24.6v37.7h-10.2v-48h34.9c11.2,0,17.9,6.9,17.9,17.8s-3.7,13.3-9.7,15.7l14.4,14.5h-14.6Z"/>
    <path class="st0" d="M713.5,686.7v32h-9.8v-42.5c0-3.8,2-6.1,5.2-6.1s2.7.5,4.2,1.9l31.4,30.2v-32h9.8v43c0,3.8-2.1,6.1-5.2,6.1s-2.8-.6-4.2-2l-31.4-30.6Z"/>
    <path class="st0" d="M761.8,718.7v-48h43.6v10.3h-33.4v27.4h33.4v10.3h-43.7ZM778.1,698.3v-8.1h25.5v8.1h-25.5Z"/>
    <path class="st0" d="M833.7,718.7v-17.4l-25-30.6h13.8l16.8,21.2,16.8-21.2h13.1l-25.1,30.6v17.4h-10.3Z"/>
    <path class="st0" d="M869.8,718.7v-10.3h36.3c3.7,0,5.8-1.9,5.8-5s-2.1-5.1-5.8-5.1h-21.7c-9.4,0-15.3-5.7-15.3-13.8s5.4-13.9,15.4-13.9h34.7v10.3h-34.7c-2.9,0-4.7,1.7-4.7,4.6s1.8,4.6,4.7,4.6h21.6c10.1,0,15.5,4.5,15.5,14.1s-5.1,14.4-15.5,14.4h-36.3Z"/>
  </g>
</svg>
